<svg fill="#ffffff" width="14" height="12" xmlns="http://www.w3.org/2000/svg" viewBox="0 0 931.68 451.68"><g id="Layer_2" data-name="Layer 2"><g id="Layer_1-2" data-name="Layer 1"><path d="M0,216.71C8.26,195.92,23.76,189,45.75,189q373.76.65,747.52.27h10.59l2.07-2.78c-2.85-2.06-6-3.78-8.51-6.23Q738.65,122,680.12,63.48C658.81,42.06,667.78,8.14,696.38,1.13c14.25-3.49,26.08,1.33,36.27,11.51Q785.44,65.32,838.4,117.81q39.65,39.44,79.24,78.94c18.69,18.66,18.75,39.43,0,58.07Q824.9,347.24,732,439.52c-13.23,13.13-30,15.66-44.86,7.41-14.23-7.9-22.16-24.21-17.5-40.16,2.17-7.43,7-14.85,12.53-20.43,38.12-38.62,76.72-76.75,115.22-115,2.35-2.34,5.13-4.24,7.71-6.34l-.9-2.65h-10q-374.21,0-748.43.27c-22,0-37.47-7-45.76-27.73Z"/></g></g></svg>