<svg fill="#000000" width="16" height="16" xmlns="http://www.w3.org/2000/svg" viewBox="0 0 943.38 943.49"><g id="Layer_2" data-name="Layer 2"><g id="Layer_1-2" data-name="Layer 1"><path d="M426,471.08c-5.15-3.73-8.66-5.61-11.35-8.3Q214.88,263.1,15.12,63.38C4.87,53.15-.63,41.82,2.84,27.51,8.59,3.81,37.1-5.88,56.48,9.07a97.11,97.11,0,0,1,9.15,8.67Q263.95,215.92,462.16,414.21c2.92,2.92,4.85,6.83,7.25,10.27l4.38,0c2.4-3.44,4.35-7.34,7.27-10.26Q680.64,214.3,880.33,14.51C888.22,6.6,896.46,0,908.36,0c13.92,0,24.38,6,30.82,18.24,6.7,12.7,5.19,25.11-3.24,36.54-2.68,3.64-6.15,6.71-9.37,9.94q-198.95,199-398,398c-2.69,2.7-5.9,4.89-9.44,7.79,4.07,4.3,6.82,7.35,9.72,10.25Q728.66,680.52,928.48,880.17c7.61,7.6,14.29,15.43,14.69,26.89.52,14.8-5.63,25.94-18.79,32.53s-25.87,4.66-37.26-4.66a125.09,125.09,0,0,1-9.07-8.78Q679.77,727.94,481.51,529.7c-3-3-5.57-6.31-9-10.27-3.85,3.67-6.86,6.42-9.74,9.3Q262.6,728.83,62.56,929c-11.26,11.28-23.44,17.84-39.51,12.35A33.7,33.7,0,0,1,7.62,888a116.88,116.88,0,0,1,8.72-9.1q199-199,398-398C417,478.18,420.2,475.92,426,471.08Z"/></g></g></svg>