<svg fill="#000000" width="14" height="12" xmlns="http://www.w3.org/2000/svg" viewBox="0 0 984.15 537.44"><g id="Layer_2" data-name="Layer 2"><g id="Layer_1-2" data-name="Layer 1"><g id="Layer_2-2" data-name="Layer 2"><g id="Layer_1-2-2" data-name="Layer 1-2"><path d="M494.7,430.43c3.53-5.15,6.05-10.37,9.92-14.25Q703.46,217,902.44,18c14.28-14.32,30-22,50.14-15.69a44.58,44.58,0,0,1,22,70.22c-3.41,4.39-7.55,8.22-11.5,12.17Q747.32,300.49,531.5,516.27c-28.25,28.25-50.61,28.22-78.85,0Q235.36,299,18,81.78C3.7,67.51-4.08,51.86,2.19,31.66A44.58,44.58,0,0,1,72.34,9.49c4.39,3.4,8.22,7.56,12.17,11.5q198,198,396.08,396C484.15,420.55,487.88,423.94,494.7,430.43Z"/></g></g></g></g></svg>