<svg fill="#000000" width="16" height="16" xmlns="http://www.w3.org/2000/svg" viewBox="0 0 965.44 551.7"><g id="Layer_2" data-name="Layer 2"><g id="Layer_1-2" data-name="Layer 1"><path d="M482.24,69q-220.3,0-440.6,0c-5,0-10.16.1-15-1A34.46,34.46,0,0,1,.22,31C1.9,14.06,15.91,1,33.41.08,36.28-.06,39.16,0,42,0q440.6,0,881.2,0c5,0,10.15-.18,15,.86a34.56,34.56,0,0,1,27,36.46c-1.41,16.93-15.4,30.45-32.72,31.51-3.58.22-7.18.08-10.77.08Z"/><path d="M483.25,241.35q220.29,0,440.6,0c4.65,0,9.42-.17,13.93.75a34.61,34.61,0,0,1,27.49,36.12c-1.17,16.95-15,30.71-32.28,32-2.5.18-5,.09-7.54.09q-442.76,0-885.51.12c-16.67,0-29.72-5.34-36.85-20.82-9.89-21.47,5.1-46.15,28.79-48.11,3.57-.3,7.18-.13,10.77-.13Z"/><path d="M483.82,482.68q221.91,0,443.83,0c26.78,0,44.12,22.33,35.6,45.78-5,13.78-15.27,21.32-29.76,23a96.63,96.63,0,0,1-10.77.15q-440.05,0-880.12-.07c-6.38,0-13.07-.23-19.08-2.1A33.85,33.85,0,0,1,.32,512.51a34.73,34.73,0,0,1,32.13-29.73c3.58-.25,7.18-.1,10.77-.1Z"/></g></g></svg>